<?xml version="1.0" encoding="UTF-8"?>
<svg id="Layer_1" data-name="Layer 1" xmlns="http://www.w3.org/2000/svg" viewBox="0 0 30.25 15.5">
  <defs>
    <style>
      .cls-1 {
        stroke: #ff0;
        stroke-width: .5px;
      }

      .cls-1, .cls-2 {
        fill: #ff0;
      }
    </style>
  </defs>
  <g id="Group_5862" data-name="Group 5862">
    <path id="hyperlink-icon" class="cls-2" d="M22.63,4.41c-.35,.38-.94,.4-1.32,.05-.38-.35-.4-.94-.05-1.32,.02-.02,.03-.03,.05-.05l1.59-1.58c1.68-1.68,4.41-1.68,6.09,0h0c1.67,1.7,1.66,4.41,0,6.09l-1.59,1.58c-.38,.35-.97,.33-1.32-.05-.33-.36-.33-.91,0-1.27l1.59-1.59c.94-.95,.94-2.49,0-3.44h-.01c-.96-.95-2.49-.95-3.44,0l-1.58,1.59h0Zm1.71,.39c.39-.33,.98-.29,1.32,.1,.3,.35,.3,.87,0,1.22l-4.55,4.55c-.38,.35-.97,.32-1.32-.06-.33-.36-.33-.9,0-1.26l4.55-4.55h0Zm-1.52,6.32c.36-.37,.96-.37,1.32,0,.37,.36,.37,.96,0,1.32l-1.55,1.55c-1.68,1.67-4.39,1.68-6.07,.02l-.03-.03c-1.66-1.69-1.65-4.4,.02-6.07l1.55-1.55c.35-.38,.94-.41,1.32-.06,.38,.35,.41,.94,.06,1.32-.02,.02-.04,.04-.06,.06l-1.55,1.55c-.94,.96-.94,2.49,0,3.45h0c.95,.95,2.5,.95,3.45,0l1.55-1.55Z"/>
    <g id="Group_5861" data-name="Group 5861">
      <g id="Group_2661" data-name="Group 2661">
        <path id="Path_7580" data-name="Path 7580" class="cls-1" d="M6.42,8.19c-2.19,0-3.97-1.78-3.97-3.97S4.23,.25,6.42,.25s3.97,1.78,3.97,3.97c0,2.19-1.78,3.97-3.97,3.97Zm0-7.06c-1.71,0-3.09,1.38-3.09,3.09,0,1.71,1.38,3.09,3.09,3.09s3.09-1.38,3.09-3.09h0c0-1.71-1.38-3.09-3.09-3.09Z"/>
      </g>
      <g id="Group_2662" data-name="Group 2662">
        <path id="Path_7581" data-name="Path 7581" class="cls-1" d="M12.16,15.25c-.24,0-.44-.2-.44-.44,0-2.92-2.38-5.29-5.3-5.29-2.75,0-5.03,2.11-5.27,4.84H9.95c.24,0,.44,.2,.44,.44s-.2,.44-.44,.44H.25v-.44c0-3.41,2.77-6.17,6.18-6.17,3.41,0,6.17,2.76,6.17,6.17,0,.24-.2,.44-.44,.44h0Z"/>
      </g>
    </g>
  </g>
</svg>