<?xml version="1.0" encoding="UTF-8"?>
<svg id="Layer_1" data-name="Layer 1" xmlns="http://www.w3.org/2000/svg" viewBox="0 0 20 19.15">
  <defs>
    <style>
      .cls-1 {
        fill: #ff0;
      }
    </style>
  </defs>
  <path id="pin-code-security" class="cls-1" d="M0,0H20V8.97H0V0ZM18.67,1.33H1.33V7.63H18.67V1.33ZM3.64,3.39c.6,0,1.09,.49,1.09,1.09s-.49,1.09-1.09,1.09-1.09-.49-1.09-1.09h0c0-.6,.49-1.09,1.09-1.09Zm4.24,0c.6,0,1.09,.49,1.09,1.09s-.49,1.09-1.09,1.09-1.09-.49-1.09-1.09h0c0-.6,.49-1.09,1.09-1.09Zm4.25,0c.6,0,1.09,.49,1.09,1.09s-.49,1.09-1.09,1.09-1.09-.49-1.09-1.09h0c0-.6,.49-1.09,1.09-1.09h0Zm4.24,0c.6,0,1.09,.49,1.09,1.09s-.49,1.09-1.09,1.09-1.09-.49-1.09-1.09h0c0-.6,.49-1.09,1.09-1.09Zm-4.66,8.98h-3.4v-1.33h3.4v1.33Zm5.09,0h-3.39v-1.33h3.4v1.33Zm-10.19,0H3.21v-1.33h3.39v1.33Zm5.1,3.39h-3.4v-1.33h3.4v1.33Zm5.09,0h-3.39v-1.33h3.4v1.33Zm-10.19,0H3.21v-1.33h3.39v1.33Zm5.1,3.4h-3.4v-1.34h3.4v1.34Zm5.09,0h-3.39v-1.34h3.4v1.34Zm-10.19,0H3.2v-1.34h3.4v1.34Z"/>
</svg>