<?xml version="1.0" encoding="UTF-8"?>
<svg id="Layer_1" data-name="Layer 1" xmlns="http://www.w3.org/2000/svg" viewBox="0 0 12.18 15.5">
  <path id="Path_27800" data-name="Path 27800" d="M6.09,0C3.83,.14,2.1,2.08,2.22,4.34v1.24H1.11C.46,5.62-.03,6.17,0,6.82v7.44c-.03,.65,.46,1.2,1.11,1.24H11.07c.65-.04,1.14-.59,1.11-1.24V6.82c.03-.65-.46-1.2-1.11-1.24h-1.11v-1.24C10.06,2.16,8.45,.29,6.29,.05c-.06-.03-.13-.04-.2-.05Zm0,1.24c1.62,.09,2.86,1.48,2.77,3.1h0v1.24H3.32v-1.24c-.09-1.62,1.15-3.01,2.77-3.1,0,0,0,0,0,0Z"/>
</svg>