<?xml version="1.0" encoding="utf-8"?>
<!-- Generator: Adobe Illustrator 24.1.0, SVG Export Plug-In . SVG Version: 6.00 Build 0)  -->
<svg version="1.1" id="Layer_1" xmlns="http://www.w3.org/2000/svg" xmlns:xlink="http://www.w3.org/1999/xlink" x="0px" y="0px"
	 viewBox="0 0 141.73 141.73" style="enable-background:new 0 0 141.73 141.73;" xml:space="preserve">
<style type="text/css">
	.st0{fill:#3AAAE1;}
</style>
<path class="st0" d="M114.47,43.82c-3.21,1.42-6.66,2.38-10.28,2.82c3.69-2.21,6.53-5.72,7.87-9.9c-3.46,2.05-7.29,3.54-11.36,4.34
	c-3.26-3.48-7.91-5.65-13.06-5.65c-9.88,0-17.89,8.01-17.89,17.89c0,1.4,0.16,2.77,0.46,4.08c-14.87-0.75-28.05-7.87-36.87-18.69
	c-1.54,2.64-2.42,5.72-2.42,8.99c0,6.21,3.16,11.68,7.96,14.89c-2.93-0.09-5.69-0.9-8.1-2.24c0,0.07,0,0.15,0,0.23
	c0,8.67,6.17,15.9,14.35,17.54c-1.5,0.41-3.08,0.63-4.71,0.63c-1.15,0-2.27-0.11-3.37-0.32c2.28,7.11,8.88,12.28,16.71,12.42
	c-6.12,4.8-13.84,7.66-22.22,7.66c-1.44,0-2.87-0.08-4.27-0.25c7.92,5.08,17.32,8.04,27.42,8.04c32.91,0,50.9-27.26,50.9-50.9
	c0-0.78-0.02-1.55-0.05-2.31C109.04,50.56,112.07,47.41,114.47,43.82z"/>
</svg>
