<?xml version="1.0" encoding="utf-8"?>
<!-- Generator: Adobe Illustrator 24.1.0, SVG Export Plug-In . SVG Version: 6.00 Build 0)  -->
<svg version="1.1" id="Layer_1" xmlns="http://www.w3.org/2000/svg" xmlns:xlink="http://www.w3.org/1999/xlink" x="0px" y="0px"
	 viewBox="0 0 141.73 141.73" style="enable-background:new 0 0 141.73 141.73;" xml:space="preserve">
<style type="text/css">
	.st0{fill:#48AF55;}
</style>
<g id="logo" transform="translate(-426.533 -423.087)">
	<g id="Group_4743" transform="translate(426.533 423.087)">
		<g id="Group_4742" transform="translate(0)">
			<path id="Path_27328" class="st0" d="M92.03,49.58c-11.61-11.62-30.45-11.62-42.06-0.01c-9.51,9.51-11.46,24.22-4.75,35.88
				L41,100.86l15.77-4.13c4.36,2.37,9.25,3.62,14.21,3.62h0.01c16.43,0,29.74-13.32,29.74-29.75
				C100.73,62.72,97.6,55.16,92.03,49.58L92.03,49.58z M70.99,95.33h-0.01c-4.43,0-8.77-1.19-12.58-3.45l-0.9-0.54l-9.36,2.45
				l2.5-9.12l-0.59-0.93c-7.26-11.56-3.77-26.82,7.8-34.08c11.56-7.26,26.82-3.77,34.08,7.8c7.26,11.56,3.77,26.82-7.8,34.08
				C80.2,94.02,75.65,95.33,70.99,95.33L70.99,95.33z M84.55,76.82c-0.74-0.37-4.4-2.17-5.08-2.42s-1.18-0.37-1.67,0.37
				s-1.92,2.42-2.35,2.91s-0.87,0.56-1.61,0.19c-2.19-0.87-4.21-2.12-5.98-3.69c-1.62-1.5-3.02-3.24-4.13-5.15
				c-0.43-0.74-0.05-1.15,0.33-1.52c0.33-0.33,0.74-0.87,1.11-1.3c0.31-0.38,0.56-0.79,0.74-1.24c0.2-0.42,0.18-0.9-0.06-1.3
				c-0.19-0.37-1.67-4.03-2.29-5.52c-0.6-1.45-1.22-1.25-1.67-1.27c-0.43-0.02-0.93-0.03-1.42-0.03c-0.76,0.02-1.48,0.36-1.98,0.93
				c-1.7,1.61-2.64,3.86-2.6,6.2c0,3.66,2.66,7.19,3.04,7.68s5.24,8,12.69,11.22c1.38,0.6,2.8,1.12,4.24,1.57
				c1.52,0.46,3.12,0.56,4.68,0.29c1.43-0.21,4.4-1.8,5.02-3.53c0.49-1.11,0.64-2.34,0.43-3.53C85.79,77.38,85.29,77.19,84.55,76.82
				L84.55,76.82z"/>
		</g>
	</g>
</g>
</svg>
